<svg xmlns="http://www.w3.org/2000/svg" xmlns:xlink="http://www.w3.org/1999/xlink" viewBox="0 0 217.61 69.55"><defs><style>.cls-1,.cls-2{fill:none;}.cls-1{clip-rule:evenodd;}.cls-3{clip-path:url(#clip-path);}.cls-4{clip-path:url(#clip-path-2);}.cls-5{clip-path:url(#clip-path-3);}.cls-6{clip-path:url(#clip-path-5);}.cls-7{clip-path:url(#clip-path-7);}.cls-8{clip-path:url(#clip-path-9);}.cls-9{clip-path:url(#clip-path-11);}.cls-10{fill:#00a664;}.cls-11{clip-path:url(#clip-path-13);}.cls-12{clip-path:url(#clip-path-15);}.cls-13{clip-path:url(#clip-path-17);}.cls-14{clip-path:url(#clip-path-19);}.cls-15{clip-path:url(#clip-path-21);}.cls-16{clip-path:url(#clip-path-23);}.cls-17{clip-path:url(#clip-path-25);}.cls-18{clip-path:url(#clip-path-27);}.cls-19{clip-path:url(#clip-path-29);}.cls-20{isolation:isolate;}.cls-21{clip-path:url(#clip-path-31);}.cls-22{clip-path:url(#clip-path-32);}.cls-23{clip-path:url(#clip-path-33);}.cls-24{fill:#fff;}.cls-25{clip-path:url(#clip-path-34);}.cls-26{clip-path:url(#clip-path-36);}.cls-27{clip-path:url(#clip-path-38);}.cls-28{clip-path:url(#clip-path-40);}.cls-29{clip-path:url(#clip-path-42);}.cls-30{clip-path:url(#clip-path-44);}.cls-31{clip-path:url(#clip-path-46);}.cls-32{clip-path:url(#clip-path-48);}.cls-33{clip-path:url(#clip-path-50);}.cls-34{clip-path:url(#clip-path-52);}.cls-35{clip-path:url(#clip-path-54);}.cls-36{clip-path:url(#clip-path-56);}.cls-37{clip-path:url(#clip-path-58);}.cls-38{clip-path:url(#clip-path-60);}.cls-39{clip-path:url(#clip-path-62);}.cls-40{clip-path:url(#clip-path-64);}.cls-41{clip-path:url(#clip-path-66);}</style><clipPath id="clip-path"><path class="cls-1" d="M7.12,64.34H5.6a.6.6,0,0,1-.6-.61V51.26a.6.6,0,0,1,.6-.6h8.55a.6.6,0,0,1,.6.6v1.19a.6.6,0,0,1-.6.61H7.72v2.88h4.89a.6.6,0,0,1,.61.6v1.21a.6.6,0,0,1-.61.6H7.72v5.38a.6.6,0,0,1-.6.61"/></clipPath><clipPath id="clip-path-2"><rect class="cls-2" x="4" y="5" width="209" height="60"/></clipPath><clipPath id="clip-path-3"><path class="cls-1" d="M26.38,64.34H17.84a.61.61,0,0,1-.61-.61V51.26a.6.6,0,0,1,.61-.6h1.51a.6.6,0,0,1,.61.6V61.94h6.42a.6.6,0,0,1,.6.6v1.19a.6.6,0,0,1-.6.61"/></clipPath><clipPath id="clip-path-5"><path class="cls-1" d="M38.58,64.34H30.07a.6.6,0,0,1-.6-.61V51.26a.6.6,0,0,1,.6-.6h8.51a.6.6,0,0,1,.6.6v1.19a.6.6,0,0,1-.6.61H32.19v2.88H37.1a.6.6,0,0,1,.6.6v1.21a.6.6,0,0,1-.6.6H32.19v3.59h6.39a.6.6,0,0,1,.6.6v1.19a.6.6,0,0,1-.6.61"/></clipPath><clipPath id="clip-path-7"><path class="cls-1" d="M51,64.34H42.47a.6.6,0,0,1-.6-.61V51.26a.6.6,0,0,1,.6-.6H51a.6.6,0,0,1,.6.6v1.19a.6.6,0,0,1-.6.61H44.59v2.88H49.5a.6.6,0,0,1,.6.6v1.21a.6.6,0,0,1-.6.6H44.59v3.59H51a.6.6,0,0,1,.6.6v1.19a.6.6,0,0,1-.6.61"/></clipPath><clipPath id="clip-path-9"><path class="cls-1" d="M60.13,64.34H58.61a.6.6,0,0,1-.6-.61V53.06h-3.7a.61.61,0,0,1-.61-.61V51.26a.6.6,0,0,1,.61-.6H64.44a.6.6,0,0,1,.6.6v1.19a.6.6,0,0,1-.6.61H60.73V63.73a.6.6,0,0,1-.6.61"/></clipPath><clipPath id="clip-path-11"><path class="cls-1" d="M88,64.34H86.54a.6.6,0,0,1-.6-.61V55.19l-3,6.4a.61.61,0,0,1-.55.35H81.21a.6.6,0,0,1-.55-.36l-2.88-6.4v8.55a.61.61,0,0,1-.61.61h-1.4a.61.61,0,0,1-.61-.61V51.26a.6.6,0,0,1,.61-.6h2.47a.61.61,0,0,1,.55.36l3.12,7L85,51a.59.59,0,0,1,.55-.36H88a.6.6,0,0,1,.6.6V63.73a.6.6,0,0,1-.6.61"/></clipPath><clipPath id="clip-path-13"><path class="cls-1" d="M102.65,64.34h-1.57a.6.6,0,0,1-.57-.4l-1.15-3.17h-4.7l-1.07,3.16a.6.6,0,0,1-.57.41H91.58a.59.59,0,0,1-.49-.26.57.57,0,0,1-.08-.55L95.44,51a.61.61,0,0,1,.57-.4h2a.61.61,0,0,1,.57.4l4.59,12.58a.6.6,0,0,1-.07.55A.61.61,0,0,1,102.65,64.34Zm-7.18-6h3L97,54Z"/></clipPath><clipPath id="clip-path-15"><path class="cls-1" d="M115.67,64.34H114.3a.64.64,0,0,1-.51-.28l-5.66-8.82,0,.66v7.83a.61.61,0,0,1-.61.61h-1.29a.61.61,0,0,1-.61-.61V51.26a.6.6,0,0,1,.61-.6h1.64a.58.58,0,0,1,.5.28l5.41,8.48,0-1.23V51.26a.6.6,0,0,1,.6-.6h1.3a.6.6,0,0,1,.61.6V63.73a.61.61,0,0,1-.61.61"/></clipPath><clipPath id="clip-path-17"><path class="cls-1" d="M130.36,64.34h-1.57a.61.61,0,0,1-.57-.4l-1.15-3.17h-4.69l-1.07,3.16a.62.62,0,0,1-.57.41h-1.45a.61.61,0,0,1-.49-.26.63.63,0,0,1-.08-.55L123.16,51a.6.6,0,0,1,.57-.4h2a.6.6,0,0,1,.57.4l4.6,12.58a.6.6,0,0,1-.08.55A.59.59,0,0,1,130.36,64.34Zm-7.18-6h3L124.66,54Z"/></clipPath><clipPath id="clip-path-19"><path class="cls-1" d="M138.79,64.55h-1.48c-2.91,0-4.57-1.65-4.57-4.53v-5c0-2.86,1.69-4.63,4.42-4.63h4a4.1,4.1,0,0,1,2.45.61.64.64,0,0,1,.21.47v.86a.61.61,0,0,1-.6.61h-6c-1.39,0-1.68,1.06-1.68,1.95V60c0,1.35.57,2,1.68,2h1.9a10.06,10.06,0,0,0,2.11-.22V59h-3a.6.6,0,0,1-.61-.6V57.16a.61.61,0,0,1,.61-.61h5.13a.61.61,0,0,1,.61.61v6.57a.61.61,0,0,1-.61.61h-1.15a.6.6,0,0,1-.55-.36,6.66,6.66,0,0,1-2.8.57"/></clipPath><clipPath id="clip-path-21"><path class="cls-1" d="M156,64.34h-8.51a.6.6,0,0,1-.6-.61V51.26a.6.6,0,0,1,.6-.6H156a.6.6,0,0,1,.6.6v1.19a.6.6,0,0,1-.6.61h-6.39v2.88h4.91a.6.6,0,0,1,.6.6v1.21a.6.6,0,0,1-.6.6h-4.91v3.59H156a.6.6,0,0,1,.6.6v1.19a.6.6,0,0,1-.6.61"/></clipPath><clipPath id="clip-path-23"><path class="cls-1" d="M172,64.34h-1.4a.61.61,0,0,1-.61-.61V55.19l-2.95,6.4a.62.62,0,0,1-.55.35h-1.23a.6.6,0,0,1-.55-.36l-2.88-6.4v8.55a.6.6,0,0,1-.6.61h-1.41a.6.6,0,0,1-.6-.61V51.26a.6.6,0,0,1,.6-.6h2.47a.59.59,0,0,1,.55.36l3.13,7,3.12-7a.6.6,0,0,1,.55-.36H172a.6.6,0,0,1,.61.6V63.73a.61.61,0,0,1-.61.61"/></clipPath><clipPath id="clip-path-25"><path class="cls-1" d="M184.89,64.34h-8.51a.61.61,0,0,1-.61-.61V51.26a.61.61,0,0,1,.61-.6h8.51a.6.6,0,0,1,.6.6v1.19a.6.6,0,0,1-.6.61H178.5v2.88h4.91a.6.6,0,0,1,.6.6v1.21a.6.6,0,0,1-.6.6H178.5v3.59h6.39a.6.6,0,0,1,.6.6v1.19a.6.6,0,0,1-.6.61"/></clipPath><clipPath id="clip-path-27"><path class="cls-1" d="M198.19,64.34h-1.37a.61.61,0,0,1-.51-.28l-5.67-8.82,0,.66v7.83a.6.6,0,0,1-.6.61h-1.3a.61.61,0,0,1-.61-.61V51.26a.6.6,0,0,1,.61-.6h1.64a.59.59,0,0,1,.51.28l5.41,8.48-.06-1.23V51.26a.6.6,0,0,1,.61-.6h1.3a.6.6,0,0,1,.6.6V63.73a.6.6,0,0,1-.6.61"/></clipPath><clipPath id="clip-path-29"><path class="cls-1" d="M207.7,64.34h-1.52a.6.6,0,0,1-.6-.61V53.06h-3.7a.61.61,0,0,1-.61-.61V51.26a.6.6,0,0,1,.61-.6H212a.6.6,0,0,1,.6.6v1.19a.6.6,0,0,1-.6.61H208.3V63.73a.6.6,0,0,1-.6.61"/></clipPath><clipPath id="clip-path-31"><rect class="cls-2" x="22" y="5" width="175" height="37"/></clipPath><clipPath id="clip-path-32"><rect class="cls-2" x="22.83" y="5" width="173.25" height="36.55"/></clipPath><clipPath id="clip-path-33"><rect class="cls-2" x="5" y="5" width="208" height="60"/></clipPath><clipPath id="clip-path-34"><rect class="cls-2" x="58.19" y="6.19" width="136.7" height="34.18"/></clipPath><clipPath id="clip-path-36"><path class="cls-1" d="M131.75,21.17a5,5,0,0,0-3.62-1.23c-2.9,0-4.7,1.52-4.7,3.76a3.41,3.41,0,0,0,1.11,2.55,4.94,4.94,0,0,0,3.59,1.24,5,5,0,0,0,3.62-1.24,3.53,3.53,0,0,0,0-5.08m-3.41,9a7.35,7.35,0,0,1-4.91-1.77v6.93h-3.87V17.81h3.87v1.3a8.12,8.12,0,0,1,4.91-1.61A9.92,9.92,0,0,1,135,19.65a5.39,5.39,0,0,1,2,4.16c0,3.74-3.45,6.35-8.63,6.35"/></clipPath><clipPath id="clip-path-38"><path class="cls-1" d="M151.4,29.92h4.25V17.81H151.4Zm2.16-14a3.32,3.32,0,0,1-2.11-.65,1.41,1.41,0,0,1-.64-1.11,1.47,1.47,0,0,1,.64-1.13,3.41,3.41,0,0,1,2.07-.65,3.46,3.46,0,0,1,2.1.65,1.47,1.47,0,0,1,.64,1.13C156.26,15.14,155.05,15.92,153.56,15.92Z"/></clipPath><clipPath id="clip-path-40"><path class="cls-1" d="M164.74,30.34c-3.34,0-5.26-.64-7-2.17l-.24-.22.3-.17,2.62-1.39.17-.1.16.13a6.6,6.6,0,0,0,4,1.34,4.61,4.61,0,0,0,2.87-.73.66.66,0,0,0,.3-.53c0-1-2-1.29-3.4-1.51l-.5,0c-2.95-.43-6-1.15-6-3.63a2.91,2.91,0,0,1,1.16-2.25,11,11,0,0,1,6.24-1.62c2.89,0,5,.76,6.2,2l.2.22-3,1.45-.2.11-.16-.13A4.87,4.87,0,0,0,165.2,20c-1.35,0-2.49.38-2.49,1.08,0,1,2,1.31,3.52,1.5.23,0,.47,0,.64.11,2.88.43,5.74,1.21,5.74,3.68,0,2.9-4.32,3.95-7.87,3.95"/></clipPath><clipPath id="clip-path-42"><path class="cls-1" d="M69.66,29.82v-7a2.4,2.4,0,0,0-.85-1.95A4.38,4.38,0,0,0,66,20.05c-2.81,0-3.62,1.32-3.62,3.61v6.16H58.19v-12h4.22v1.37a7,7,0,0,1,5-1.68A8,8,0,0,1,72.44,19a4,4,0,0,1,1.44,3.16v7.67H69.66"/></clipPath><clipPath id="clip-path-44"><path class="cls-1" d="M75,20.24v-2.5h2.78V14.48H82v3.26h4.45v2.5H82v5.52c0,1.18.5,1.91,2.4,1.91a4.82,4.82,0,0,0,2-.36v2.47a11,11,0,0,1-3.13.39c-4.53,0-5.55-1.39-5.55-4.16V20.24Z"/></clipPath><clipPath id="clip-path-46"><path class="cls-1" d="M100.81,22.49H91c.34-.93,2.28-2.66,5.26-2.7s4.46,1.22,5.09,2.12c.27.5-.19.58-.58.58m-.09,3.91a6.92,6.92,0,0,1-4,1.14A6.83,6.83,0,0,1,92,26.06a2.37,2.37,0,0,1-.69-1.22H104.4c.69,0,1-.29,1-1.14a6,6,0,0,0-1.82-4.07c-1.5-1.49-4.25-2.39-7.26-2.39A10.77,10.77,0,0,0,88.85,20a5.28,5.28,0,0,0-1.69,3.78,5.42,5.42,0,0,0,1.69,3.89,11.06,11.06,0,0,0,7.62,2.56,14.53,14.53,0,0,0,4.45-.65,9.13,9.13,0,0,0,1.71-.79,7,7,0,0,0,1.49-1.17,4.72,4.72,0,0,0,.7-1c.14-.29-.36-.22-.68-.23h-3.4l0,0"/></clipPath><clipPath id="clip-path-48"><path class="cls-1" d="M117.81,17.71a8.79,8.79,0,0,0-1.59-.17,8,8,0,0,0-4.91,2.2V17.86H107.1v12h4.21v-6c0-2.34,1.54-3.47,4.63-3.47a10.1,10.1,0,0,1,1.53.15l.34.08Z"/></clipPath><clipPath id="clip-path-50"><path class="cls-1" d="M149.56,17.71a8.79,8.79,0,0,0-1.59-.17,7.93,7.93,0,0,0-4.9,2.2V17.86h-4.22v12h4.22v-6c0-2.34,1.53-3.47,4.62-3.47a10,10,0,0,1,1.53.15l.34.08Z"/></clipPath><clipPath id="clip-path-52"><path class="cls-1" d="M187.23,22.49h-9.77c.34-.93,2.28-2.66,5.27-2.7s4.45,1.22,5.08,2.12c.27.5-.19.58-.58.58m-.09,3.91a6.92,6.92,0,0,1-3.94,1.14,6.84,6.84,0,0,1-4.81-1.48,2.46,2.46,0,0,1-.7-1.22h13.13c.69,0,1.05-.29,1.05-1.14a6,6,0,0,0-1.82-4.07c-1.5-1.49-4.25-2.39-7.27-2.39A10.76,10.76,0,0,0,175.27,20a5.28,5.28,0,0,0-1.69,3.78,5.42,5.42,0,0,0,1.69,3.89,11.06,11.06,0,0,0,7.62,2.56,14.58,14.58,0,0,0,4.45-.65,8.84,8.84,0,0,0,1.71-.79,7,7,0,0,0,1.49-1.17,4.72,4.72,0,0,0,.7-1c.14-.29-.36-.22-.67-.23h-3.41l0,0"/></clipPath><clipPath id="clip-path-54"><path class="cls-1" d="M51.35,21.48c-.1.19-.43.22-.75.23H38.72a2.21,2.21,0,0,1,.25-.43c1.12-1.65,3.71-2.81,6.29-2.81s4.86.89,6,2.48c.14.25.17.41.11.53m4.56.67c-.67-3.34-4.58-6.72-10.75-6.72h0c-5.44,0-9.4,2.89-10.67,5.85,0,.06-.13.32-.17.43H24v3H52.87c1.43,0,2.45,0,2.89-.59.3-.37.35-1,.15-2"/></clipPath><clipPath id="clip-path-56"><path class="cls-1" d="M45.1,27.88a7.92,7.92,0,0,1-5.94-2.45h-4.6c1.21,2.91,4.87,5.73,10.59,5.72,5.87,0,8.24-2.06,9.78-4.07a2,2,0,0,0,.17-.27H49.71c-1.06.86-3.09,1.07-4.61,1.07"/></clipPath><clipPath id="clip-path-58"><path class="cls-1" d="M54.92,27.08c-1.53,2-3.9,4.06-9.77,4.07-5.72,0-9.38-2.81-10.59-5.72h4.6a7.92,7.92,0,0,0,5.94,2.45c1.52,0,3.55-.21,4.61-1.07H55.1A1.41,1.41,0,0,1,54.92,27.08ZM24,6.19V21.71H34.32c0-.11.14-.37.17-.43,1.27-3,5.23-5.85,10.67-5.85h0c6.16,0,10.07,3.38,10.74,6.72.2,1,.15,1.64-.15,2-.44.55-1.46.58-2.89.59H24V40.37H58.19V6.19Z"/></clipPath><clipPath id="clip-path-60"><path class="cls-1" d="M51.35,21.48c.06-.12,0-.28-.11-.53-1.12-1.59-3.3-2.49-6-2.48S40.09,19.63,39,21.28a2.21,2.21,0,0,0-.25.43H50.6c.32,0,.65,0,.75-.23"/></clipPath><clipPath id="clip-path-62"><path class="cls-1" d="M54,23.24a.79.79,0,0,0,.28-.75c-.06-1.59-2.83-5.86-9.1-5.86-6,0-8.24,3.5-8.77,4.58,0,0-.13.24-.24.5h.71c.06-.15.12-.27.2-.43.49-.91,2.75-4,8.1-4,6.24,0,8.44,4.23,8.44,5.14a.33.33,0,0,1-.09.26c-.18.16-.41.24-2,.24H24v.62H51.52c2,0,2.25-.13,2.45-.27"/></clipPath><clipPath id="clip-path-64"><path class="cls-1" d="M53,26.79l-.06.09c-2.43,3-7.5,3-8.07,2.95-4.34-.08-7.33-2.3-8.38-4.41h.71c1,1.74,3.52,3.68,7.69,3.79.19,0,4.79.19,7.28-2.42Z"/></clipPath><clipPath id="clip-path-66"><path class="cls-1" d="M26,38.68h.29V38h.23a.75.75,0,0,1,.32,0,.4.4,0,0,1,.16.38v.2s0,0,0,0h.27v0s0,0,0-.09v-.24a.48.48,0,0,0-.09-.26.44.44,0,0,0-.29-.16.56.56,0,0,0,.24-.08.37.37,0,0,0,.17-.33.41.41,0,0,0-.26-.42,1.32,1.32,0,0,0-.45,0H26Zm.83-.89a.94.94,0,0,1-.28,0h-.26v-.6h.25a.63.63,0,0,1,.35.07.25.25,0,0,1,.11.24A.26.26,0,0,1,26.78,37.79Zm.84-1a1.46,1.46,0,0,0-1.06-.44,1.52,1.52,0,0,0-1.51,1.5,1.5,1.5,0,0,0,.44,1.08,1.52,1.52,0,0,0,2.58-1.08A1.44,1.44,0,0,0,27.62,36.79Zm-.15.15a1.22,1.22,0,0,1,.38.91,1.3,1.3,0,0,1-1.29,1.31,1.3,1.3,0,0,1-.92-2.22,1.24,1.24,0,0,1,.92-.38A1.22,1.22,0,0,1,27.47,36.94Z"/></clipPath></defs><title>EFM-logo_1</title><g id="Layer_2" data-name="Layer 2"><g id="Layer_1-2" data-name="Layer 1"><g class="cls-3"><g class="cls-4"><rect y="45.66" width="19.75" height="23.68"/></g></g><g class="cls-5"><g class="cls-4"><rect x="12.23" y="45.66" width="19.75" height="23.68"/></g></g><g class="cls-6"><g class="cls-4"><rect x="24.47" y="45.66" width="19.71" height="23.68"/></g></g><g class="cls-7"><g class="cls-4"><rect x="36.87" y="45.66" width="19.71" height="23.68"/></g></g><g class="cls-8"><g class="cls-4"><rect x="48.7" y="45.66" width="21.34" height="23.68"/></g></g><g class="cls-9"><g class="cls-4"><rect class="cls-10" x="70.16" y="45.66" width="23.39" height="23.68"/></g></g><g class="cls-11"><g class="cls-4"><rect class="cls-10" x="85.97" y="45.55" width="22.27" height="23.79"/></g></g><g class="cls-12"><g class="cls-4"><rect class="cls-10" x="100.66" y="45.66" width="20.62" height="23.68"/></g></g><g class="cls-13"><g class="cls-4"><rect class="cls-10" x="113.69" y="45.55" width="22.27" height="23.79"/></g></g><g class="cls-14"><g class="cls-4"><rect class="cls-10" x="127.74" y="45.44" width="21.16" height="24.11"/></g></g><g class="cls-15"><g class="cls-4"><rect class="cls-10" x="141.84" y="45.66" width="19.71" height="23.68"/></g></g><g class="cls-16"><g class="cls-4"><rect class="cls-10" x="154.24" y="45.66" width="23.39" height="23.68"/></g></g><g class="cls-17"><g class="cls-4"><rect class="cls-10" x="170.77" y="45.66" width="19.71" height="23.68"/></g></g><g class="cls-18"><g class="cls-4"><rect class="cls-10" x="183.17" y="45.66" width="20.62" height="23.68"/></g></g><g class="cls-19"><g class="cls-4"><rect class="cls-10" x="196.27" y="45.66" width="21.34" height="23.68"/></g></g><g class="cls-20"><g class="cls-21"><g class="cls-22"><g class="cls-23"><rect class="cls-24" x="17.83" width="183.25" height="46.55"/></g></g><g class="cls-25"><g class="cls-23"><rect x="53.19" y="1.19" width="146.7" height="44.18"/></g></g><g class="cls-26"><g class="cls-23"><rect class="cls-24" x="114.56" y="12.5" width="27.41" height="27.82"/></g></g><g class="cls-27"><g class="cls-23"><rect class="cls-24" x="145.81" y="7.38" width="15.45" height="27.54"/></g></g><g class="cls-28"><g class="cls-23"><rect class="cls-24" x="152.51" y="12.44" width="25.09" height="22.89"/></g></g><g class="cls-29"><g class="cls-23"><rect class="cls-24" x="53.19" y="12.5" width="25.69" height="22.33"/></g></g><g class="cls-30"><g class="cls-23"><rect class="cls-24" x="69.96" y="9.48" width="21.46" height="25.7"/></g></g><g class="cls-31"><g class="cls-23"><rect class="cls-24" x="82.16" y="12.24" width="28.29" height="22.94"/></g></g><g class="cls-32"><g class="cls-23"><rect class="cls-24" x="102.1" y="12.54" width="20.71" height="22.32"/></g></g><g class="cls-33"><g class="cls-23"><rect class="cls-24" x="133.85" y="12.54" width="20.71" height="22.32"/></g></g><g class="cls-34"><g class="cls-23"><rect class="cls-24" x="168.58" y="12.24" width="28.29" height="22.94"/></g></g><g class="cls-35"><g class="cls-23"><rect class="cls-24" x="19.01" y="10.43" width="42.02" height="19.32"/></g></g><g class="cls-36"><g class="cls-23"><rect class="cls-24" x="29.56" y="20.43" width="30.54" height="15.72"/></g></g><g class="cls-37"><g class="cls-23"><rect class="cls-10" x="19.01" y="1.19" width="44.17" height="44.18"/></g></g><g class="cls-38"><g class="cls-23"><rect class="cls-10" x="33.72" y="13.47" width="22.66" height="13.25"/></g></g><g class="cls-39"><g class="cls-23"><rect class="cls-10" x="19.01" y="11.63" width="40.24" height="16.88"/></g></g><g class="cls-40"><g class="cls-23"><rect class="cls-10" x="31.49" y="20.42" width="26.51" height="14.41"/></g></g><g class="cls-41"><g class="cls-23"><rect class="cls-24" x="20.05" y="31.35" width="13.01" height="13.01"/></g></g></g></g></g></g></svg>